<svg xmlns="http://www.w3.org/2000/svg" xmlns:xlink="http://www.w3.org/1999/xlink" width="32" height="32" viewBox="0 0 32 32"><defs><clipPath id="a"><rect width="32" height="32" transform="translate(616 780)" fill="#fff" stroke="#707070" stroke-width="1"/></clipPath><clipPath id="b"><rect width="32" height="32" transform="translate(693.227 -416.64)" fill="#fff" stroke="#707070" stroke-width="0.107"/></clipPath></defs><g transform="translate(-616 -780)" clip-path="url(#a)"><g transform="translate(-77.227 1196.64)" clip-path="url(#b)"><g transform="translate(585.973 -207.694)"><path d="M128.356-205.7H107.695l20.661,1.639Zm-20.661,0,20.661,1.639H107.695Z" fill="#f8991e" stroke="#f8991e" stroke-linecap="round" stroke-miterlimit="10" stroke-width="0.109"/><path d="M128.356-204.059h-1.094l1.094.547Zm-1.094,0,1.094.547h-1.094Z" fill="#f8991e" stroke="#f8991e" stroke-linecap="round" stroke-miterlimit="10" stroke-width="0.109"/><path d="M109.884-204.059h-2.189l2.189.547Zm-2.189,0,2.189.547h-2.189Z" fill="#f8991e" stroke="#f8991e" stroke-linecap="round" stroke-miterlimit="10" stroke-width="0.109"/><path d="M128.356-203.511H107.695l20.661,1.092Zm-20.661,0,20.661,1.092H107.695Z" fill="#f8991e" stroke="#f8991e" stroke-linecap="round" stroke-miterlimit="10" stroke-width="0.109"/><path d="M126.171-202.419h-1.095l1.095.547Zm-1.095,0,1.095.547h-1.095Z" fill="#f8991e" stroke="#f8991e" stroke-linecap="round" stroke-miterlimit="10" stroke-width="0.109"/><path d="M113.051-202.419h-1.095l1.095.547Zm-1.095,0,1.095.547h-1.095Z" fill="#f8991e" stroke="#f8991e" stroke-linecap="round" stroke-miterlimit="10" stroke-width="0.109"/><path d="M113.595-201.872h-1.639l1.639,8.376Zm-1.639,0,1.639,8.376h-1.639Z" fill="#f8991e" stroke="#f8991e" stroke-linecap="round" stroke-miterlimit="10" stroke-width="0.109"/><path d="M116.327-202.419h-2.186l2.186,9.47Zm-2.186,0,2.186,9.47h-2.186Z" fill="#f8991e" stroke="#f8991e" stroke-linecap="round" stroke-miterlimit="10" stroke-width="0.109"/><path d="M113.051-193.5h-1.095l1.095.547Zm-1.095,0,1.095.547h-1.095Z" fill="#f8991e" stroke="#f8991e" stroke-linecap="round" stroke-miterlimit="10" stroke-width="0.109"/><path d="M126.715-201.872h-1.639l1.639,17.843Zm-1.639,0,1.639,17.843h-1.639Z" fill="#f8991e" stroke="#f8991e" stroke-linecap="round" stroke-miterlimit="10" stroke-width="0.109"/><path d="M128.356-202.419h-1.094l1.094,18.937Zm-1.094,0,1.094,18.937h-1.094Z" fill="#f8991e" stroke="#f8991e" stroke-linecap="round" stroke-miterlimit="10" stroke-width="0.109"/><path d="M126.171-184.029h-1.095l1.095.547Zm-1.095,0,1.095.547h-1.095Z" fill="#f8991e" stroke="#f8991e" stroke-linecap="round" stroke-miterlimit="10" stroke-width="0.109"/><path d="M122.889-202.419h-4.375l4.375,18.937Zm-4.375,0,4.375,18.937h-4.375Z" fill="#f8991e" stroke="#f8991e" stroke-linecap="round" stroke-miterlimit="10" stroke-width="0.109"/><path d="M116.327-192.949h-4.372l4.372,9.467Zm-4.372,0,4.372,9.467h-4.372Z" fill="#f8991e" stroke="#f8991e" stroke-linecap="round" stroke-miterlimit="10" stroke-width="0.109"/><path d="M109.884-202.419h-2.189l2.189,18.937Zm-2.189,0,2.189,18.937h-2.189Z" fill="#f8991e" stroke="#f8991e" stroke-linecap="round" stroke-miterlimit="10" stroke-width="0.109"/><path d="M128.356-183.482H107.695l20.661,3.281Zm-20.661,0,20.661,3.281H107.695Z" fill="#f8991e" stroke="#f8991e" stroke-linecap="round" stroke-miterlimit="10" stroke-width="0.109"/><path d="M128.356-180.2H107.695v-25.5h20.661v25.5" fill="none" stroke="#f8991e" stroke-linecap="round" stroke-linejoin="round" stroke-miterlimit="10" stroke-width="0.102"/><path d="M134.036-202.419h-3.494l3.737.006Zm-3.494,0,3.737.006h-3.737Z" fill="#f8991e" stroke="#f8991e" stroke-linecap="round" stroke-miterlimit="10" stroke-width="0.109"/><path d="M134.278-202.413h-3.737l3.983.018Zm-3.737,0,3.983.018h-3.983Z" fill="#f8991e" stroke="#f8991e" stroke-linecap="round" stroke-miterlimit="10" stroke-width="0.109"/><path d="M134.525-202.4h-3.983l4.226.029Zm-3.983,0,4.226.029h-4.226Z" fill="#f8991e" stroke="#f8991e" stroke-linecap="round" stroke-miterlimit="10" stroke-width="0.109"/><path d="M134.767-202.367h-4.226l4.466.041Zm-4.226,0,4.466.041h-4.466Z" fill="#f8991e" stroke="#f8991e" stroke-linecap="round" stroke-miterlimit="10" stroke-width="0.109"/><path d="M135.007-202.325h-4.466l4.706.053Zm-4.466,0,4.706.053h-4.706Z" fill="#f8991e" stroke="#f8991e" stroke-linecap="round" stroke-miterlimit="10" stroke-width="0.109"/><path d="M135.247-202.273h-4.706l4.943.061Zm-4.706,0,4.943.061h-4.943Z" fill="#f8991e" stroke="#f8991e" stroke-linecap="round" stroke-miterlimit="10" stroke-width="0.109"/><path d="M135.485-202.211h-4.943l5.174.076Zm-4.943,0,5.174.076h-5.174Z" fill="#f8991e" stroke="#f8991e" stroke-linecap="round" stroke-miterlimit="10" stroke-width="0.109"/><path d="M135.716-202.135h-5.174l5.4.085Zm-5.174,0,5.4.085h-5.4Z" fill="#f8991e" stroke="#f8991e" stroke-linecap="round" stroke-miterlimit="10" stroke-width="0.109"/><path d="M135.945-202.05h-5.4l5.628.094Zm-5.4,0,5.628.094h-5.628Z" fill="#f8991e" stroke="#f8991e" stroke-linecap="round" stroke-miterlimit="10" stroke-width="0.109"/><path d="M136.169-201.957h-5.628l5.85.109Zm-5.628,0,5.85.109h-5.85Z" fill="#f8991e" stroke="#f8991e" stroke-linecap="round" stroke-miterlimit="10" stroke-width="0.109"/><path d="M136.391-201.849h-5.85l6.064.117Zm-5.85,0,6.064.117h-6.064Z" fill="#f8991e" stroke="#f8991e" stroke-linecap="round" stroke-miterlimit="10" stroke-width="0.109"/><path d="M136.606-201.731h-6.064l6.272.126Zm-6.064,0,6.272.126h-6.272Z" fill="#f8991e" stroke="#f8991e" stroke-linecap="round" stroke-miterlimit="10" stroke-width="0.109"/><path d="M136.813-201.605h-6.272l6.476.138Zm-6.272,0,6.476.138h-6.476Z" fill="#f8991e" stroke="#f8991e" stroke-linecap="round" stroke-miterlimit="10" stroke-width="0.109"/><path d="M137.019-201.469h-6.476l6.672.146Zm-6.476,0,6.672.146h-6.672Z" fill="#f8991e" stroke="#f8991e" stroke-linecap="round" stroke-miterlimit="10" stroke-width="0.109"/><path d="M137.214-201.322h-6.672l6.86.155Zm-6.672,0,6.86.155h-6.86Z" fill="#f8991e" stroke="#f8991e" stroke-linecap="round" stroke-miterlimit="10" stroke-width="0.109"/><path d="M137.4-201.167h-6.86l7.041.164Zm-6.86,0,7.041.164h-7.041Z" fill="#f8991e" stroke="#f8991e" stroke-linecap="round" stroke-miterlimit="10" stroke-width="0.109"/><path d="M137.583-201h-7.041l7.217.17Zm-7.041,0,7.217.17h-7.217Z" fill="#f8991e" stroke="#f8991e" stroke-linecap="round" stroke-miterlimit="10" stroke-width="0.109"/><path d="M137.759-200.833h-7.217l7.322.117Zm-7.217,0,7.322.117h-7.322Z" fill="#f8991e" stroke="#f8991e" stroke-linecap="round" stroke-miterlimit="10" stroke-width="0.109"/><path d="M137.865-200.716h-3.828l3.831.006Zm-3.828,0,3.831.006h-3.629Z" fill="#f8991e" stroke="#f8991e" stroke-linecap="round" stroke-miterlimit="10" stroke-width="0.109"/><path d="M137.867-200.71h-3.628l3.646.018Zm-3.629,0,3.646.018h-3.447Z" fill="#f8991e" stroke="#f8991e" stroke-linecap="round" stroke-miterlimit="10" stroke-width="0.109"/><path d="M137.885-200.693h-3.447l3.474.029Zm-3.447,0,3.474.029h-3.275Z" fill="#f8991e" stroke="#f8991e" stroke-linecap="round" stroke-miterlimit="10" stroke-width="0.109"/><path d="M137.911-200.663h-3.275l3.287.012Zm-3.275,0,3.287.012H134.7Z" fill="#f8991e" stroke="#f8991e" stroke-linecap="round" stroke-miterlimit="10" stroke-width="0.109"/><path d="M137.923-200.652H134.7l3.248.029Zm-3.225,0,3.248.029h-3.114Z" fill="#f8991e" stroke="#f8991e" stroke-linecap="round" stroke-miterlimit="10" stroke-width="0.109"/><path d="M137.946-200.622h-3.114l3.157.05Zm-3.114,0,3.157.05h-2.962Z" fill="#f8991e" stroke="#f8991e" stroke-linecap="round" stroke-miterlimit="10" stroke-width="0.109"/><path d="M137.99-200.573h-2.962l3.014.064Zm-2.962,0,3.014.064h-2.824Z" fill="#f8991e" stroke="#f8991e" stroke-linecap="round" stroke-miterlimit="10" stroke-width="0.109"/><path d="M138.043-200.509h-2.824l2.859.043Zm-2.824,0,2.859.043h-2.745Z" fill="#f8991e" stroke="#f8991e" stroke-linecap="round" stroke-miterlimit="10" stroke-width="0.109"/><path d="M138.078-200.464h-2.745l2.769.029Zm-2.745,0,2.769.029h-2.7Z" fill="#f8991e" stroke="#f8991e" stroke-linecap="round" stroke-miterlimit="10" stroke-width="0.109"/><path d="M138.1-200.435h-2.7l2.76.085Zm-2.7,0,2.76.085h-2.578Z" fill="#f8991e" stroke="#f8991e" stroke-linecap="round" stroke-miterlimit="10" stroke-width="0.109"/><path d="M138.165-200.35h-2.578l2.64.082Zm-2.578,0,2.64.082h-2.49Z" fill="#f8991e" stroke="#f8991e" stroke-linecap="round" stroke-miterlimit="10" stroke-width="0.109"/><path d="M138.227-200.269h-2.491l2.5.015Zm-2.49,0,2.5.015h-2.471Z" fill="#f8991e" stroke="#f8991e" stroke-linecap="round" stroke-miterlimit="10" stroke-width="0.109"/><path d="M138.236-200.254h-2.47l2.543.105Zm-2.47,0,2.543.105h-2.373Z" fill="#f8991e" stroke="#f8991e" stroke-linecap="round" stroke-miterlimit="10" stroke-width="0.109"/><path d="M138.308-200.148h-2.373l2.429.082Zm-2.373,0,2.429.082h-2.312Z" fill="#f8991e" stroke="#f8991e" stroke-linecap="round" stroke-miterlimit="10" stroke-width="0.109"/><path d="M138.365-200.066h-2.311l2.332.035Zm-2.312,0,2.332.035H136.1Z" fill="#f8991e" stroke="#f8991e" stroke-linecap="round" stroke-miterlimit="10" stroke-width="0.109"/><path d="M138.385-200.032H136.1l2.359.123Zm-2.283,0,2.359.123h-2.2Z" fill="#f8991e" stroke="#f8991e" stroke-linecap="round" stroke-miterlimit="10" stroke-width="0.109"/><path d="M138.461-199.908h-2.2l2.233.05Zm-2.2,0,2.233.05h-2.18Z" fill="#f8991e" stroke="#f8991e" stroke-linecap="round" stroke-miterlimit="10" stroke-width="0.109"/><path d="M138.493-199.859h-2.18l2.227.085Zm-2.18,0,2.227.085h-2.131Z" fill="#f8991e" stroke="#f8991e" stroke-linecap="round" stroke-miterlimit="10" stroke-width="0.109"/><path d="M138.54-199.773h-2.131l2.2.129Zm-2.131,0,2.2.129h-2.072Z" fill="#f8991e" stroke="#f8991e" stroke-linecap="round" stroke-miterlimit="10" stroke-width="0.109"/><path d="M138.61-199.645h-2.072l2.078.012Zm-2.072,0,2.078.012h-2.063Z" fill="#f8991e" stroke="#f8991e" stroke-linecap="round" stroke-miterlimit="10" stroke-width="0.109"/><path d="M138.615-199.633h-2.063l2.136.152Zm-2.063,0,2.136.152h-2Z" fill="#f8991e" stroke="#f8991e" stroke-linecap="round" stroke-miterlimit="10" stroke-width="0.109"/><path d="M138.689-199.482h-2l2.034.056Zm-2,0,2.034.056h-1.99Z" fill="#f8991e" stroke="#f8991e" stroke-linecap="round" stroke-miterlimit="10" stroke-width="0.109"/><path d="M138.719-199.426h-1.99l2.034.1Zm-1.99,0,2.034.1h-1.952Z" fill="#f8991e" stroke="#f8991e" stroke-linecap="round" stroke-miterlimit="10" stroke-width="0.109"/><path d="M138.763-199.323h-1.952l2,.123Zm-1.952,0,2,.123H136.9Z" fill="#f8991e" stroke="#f8991e" stroke-linecap="round" stroke-miterlimit="10" stroke-width="0.109"/><path d="M138.816-199.2H136.9l1.937.041Zm-1.92,0,1.937.041h-1.908Z" fill="#f8991e" stroke="#f8991e" stroke-linecap="round" stroke-miterlimit="10" stroke-width="0.109"/><path d="M138.833-199.159h-1.908l1.972.173Zm-1.908,0,1.972.173h-1.867Z" fill="#f8991e" stroke="#f8991e" stroke-linecap="round" stroke-miterlimit="10" stroke-width="0.109"/><path d="M138.9-198.986H137.03l1.873.015Zm-1.867,0,1.873.015h-1.864Z" fill="#f8991e" stroke="#f8991e" stroke-linecap="round" stroke-miterlimit="10" stroke-width="0.109"/><path d="M138.9-198.972h-1.864l1.917.161Zm-1.864,0,1.917.161h-1.829Z" fill="#f8991e" stroke="#f8991e" stroke-linecap="round" stroke-miterlimit="10" stroke-width="0.109"/><path d="M138.956-198.811h-1.829l1.852.07Zm-1.829,0,1.852.07h-1.82Z" fill="#f8991e" stroke="#f8991e" stroke-linecap="round" stroke-miterlimit="10" stroke-width="0.109"/><path d="M138.978-198.74h-1.82l1.849.111Zm-1.82,0,1.849.111h-1.8Z" fill="#f8991e" stroke="#f8991e" stroke-linecap="round" stroke-miterlimit="10" stroke-width="0.109"/><path d="M139.009-198.63h-1.8l1.832.126Zm-1.8,0,1.832.126h-1.782Z" fill="#f8991e" stroke="#f8991e" stroke-linecap="round" stroke-miterlimit="10" stroke-width="0.109"/><path d="M139.043-198.5h-1.782l1.8.061Zm-1.782,0,1.8.061h-1.773Z" fill="#f8991e" stroke="#f8991e" stroke-linecap="round" stroke-miterlimit="10" stroke-width="0.109"/><path d="M139.058-198.442h-1.773l1.812.176Zm-1.773,0,1.812.176h-1.753Z" fill="#f8991e" stroke="#f8991e" stroke-linecap="round" stroke-miterlimit="10" stroke-width="0.109"/><path d="M139.1-198.267h-1.753l1.756.018Zm-1.753,0,1.756.018h-1.75Z" fill="#f8991e" stroke="#f8991e" stroke-linecap="round" stroke-miterlimit="10" stroke-width="0.109"/><path d="M139.1-198.249h-1.75l1.782.193Zm-1.75,0,1.782.193H137.4Z" fill="#f8991e" stroke="#f8991e" stroke-linecap="round" stroke-miterlimit="10" stroke-width="0.109"/><path d="M139.132-198.057H137.4l1.735.033Zm-1.729,0,1.735.033h-1.73Z" fill="#f8991e" stroke="#f8991e" stroke-linecap="round" stroke-miterlimit="10" stroke-width="0.109"/><path d="M139.137-198.023h-1.729l1.75.164Zm-1.729,0,1.75.164h-1.715Z" fill="#f8991e" stroke="#f8991e" stroke-linecap="round" stroke-miterlimit="10" stroke-width="0.109"/><path d="M139.157-197.86h-1.715l1.727.079Zm-1.715,0,1.727.079h-1.715Z" fill="#f8991e" stroke="#f8991e" stroke-linecap="round" stroke-miterlimit="10" stroke-width="0.109"/><path d="M139.169-197.78h-1.715l1.724.119Zm-1.715,0,1.724.119h-1.707Z" fill="#f8991e" stroke="#f8991e" stroke-linecap="round" stroke-miterlimit="10" stroke-width="0.109"/><path d="M139.179-197.661h-1.707l1.715.123Zm-1.707,0,1.715.123H137.48Z" fill="#f8991e" stroke="#f8991e" stroke-linecap="round" stroke-miterlimit="10" stroke-width="0.109"/><path d="M139.187-197.538h-1.707l1.709.079Zm-1.707,0,1.709.079h-1.7Z" fill="#f8991e" stroke="#f8991e" stroke-linecap="round" stroke-miterlimit="10" stroke-width="0.109"/><path d="M139.19-197.459h-1.7l1.707.164Zm-1.7,0,1.707.164h-1.7Z" fill="#f8991e" stroke="#f8991e" stroke-linecap="round" stroke-miterlimit="10" stroke-width="0.109"/><path d="M139.2-197.295h-1.7l1.7.035Zm-1.7,0,1.7.035h-1.7Z" fill="#f8991e" stroke="#f8991e" stroke-linecap="round" stroke-miterlimit="10" stroke-width="0.109"/><path d="M139.2-197.26h-1.7l1.694.2Zm-1.7,0,1.694.2h-1.7Z" fill="#f8991e" stroke="#f8991e" stroke-linecap="round" stroke-miterlimit="10" stroke-width="0.109"/><path d="M139.19-197.057h-1.7l1.7.009Zm-1.7,0,1.7.009h-1.7Z" fill="#f8991e" stroke="#f8991e" stroke-linecap="round" stroke-miterlimit="10" stroke-width="0.109"/><path d="M139.19-197.049h-1.7l1.692.193Zm-1.7,0,1.692.193h-1.707Z" fill="#f8991e" stroke="#f8991e" stroke-linecap="round" stroke-miterlimit="10" stroke-width="0.109"/><path d="M139.179-196.857h-1.707l1.7.05Zm-1.707,0,1.7.05h-1.712Z" fill="#f8991e" stroke="#f8991e" stroke-linecap="round" stroke-miterlimit="10" stroke-width="0.109"/><path d="M139.174-196.806h-1.711l1.694.149Zm-1.712,0,1.694.149h-1.715Z" fill="#f8991e" stroke="#f8991e" stroke-linecap="round" stroke-miterlimit="10" stroke-width="0.109"/><path d="M139.157-196.657h-1.715l1.707.094Zm-1.715,0,1.707.094h-1.727Z" fill="#f8991e" stroke="#f8991e" stroke-linecap="round" stroke-miterlimit="10" stroke-width="0.109"/><path d="M139.149-196.563h-1.727l1.709.1Zm-1.727,0,1.709.1H137.4Z" fill="#f8991e" stroke="#f8991e" stroke-linecap="round" stroke-miterlimit="10" stroke-width="0.109"/><path d="M139.132-196.461H137.4l1.709.14Zm-1.729,0,1.709.14h-1.747Z" fill="#f8991e" stroke="#f8991e" stroke-linecap="round" stroke-miterlimit="10" stroke-width="0.109"/><path d="M139.11-196.32h-1.747l1.735.053Zm-1.747,0,1.735.053h-1.75Z" fill="#f8991e" stroke="#f8991e" stroke-linecap="round" stroke-miterlimit="10" stroke-width="0.109"/><path d="M139.1-196.268h-1.75l1.709.187Zm-1.75,0,1.709.187h-1.77Z" fill="#f8991e" stroke="#f8991e" stroke-linecap="round" stroke-miterlimit="10" stroke-width="0.109"/><path d="M139.058-196.08h-1.77l1.77.006Zm-1.77,0,1.77.006h-1.773Z" fill="#f8991e" stroke="#f8991e" stroke-linecap="round" stroke-miterlimit="10" stroke-width="0.109"/><path d="M139.058-196.075h-1.773l1.724.185Zm-1.773,0,1.724.185h-1.8Z" fill="#f8991e" stroke="#f8991e" stroke-linecap="round" stroke-miterlimit="10" stroke-width="0.109"/><path d="M139.009-195.89h-1.8l1.785.043Zm-1.8,0,1.785.043h-1.806Z" fill="#f8991e" stroke="#f8991e" stroke-linecap="round" stroke-miterlimit="10" stroke-width="0.109"/><path d="M139-195.846h-1.806l1.765.14Zm-1.806,0,1.765.14h-1.829Z" fill="#f8991e" stroke="#f8991e" stroke-linecap="round" stroke-miterlimit="10" stroke-width="0.109"/><path d="M138.956-195.706h-1.829l1.8.094Zm-1.829,0,1.8.094h-1.849Z" fill="#f8991e" stroke="#f8991e" stroke-linecap="round" stroke-miterlimit="10" stroke-width="0.109"/><path d="M138.926-195.612h-1.849l1.817.082Zm-1.849,0,1.817.082H137.03Z" fill="#f8991e" stroke="#f8991e" stroke-linecap="round" stroke-miterlimit="10" stroke-width="0.109"/><path d="M138.894-195.531H137.03l1.812.149Zm-1.864,0,1.812.149h-1.9Z" fill="#f8991e" stroke="#f8991e" stroke-linecap="round" stroke-miterlimit="10" stroke-width="0.109"/><path d="M138.842-195.381h-1.9l1.893.023Zm-1.9,0,1.893.023h-1.908Z" fill="#f8991e" stroke="#f8991e" stroke-linecap="round" stroke-miterlimit="10" stroke-width="0.109"/><path d="M138.833-195.358h-1.908l1.838.164Zm-1.908,0,1.838.164h-1.952Z" fill="#f8991e" stroke="#f8991e" stroke-linecap="round" stroke-miterlimit="10" stroke-width="0.109"/><path d="M138.763-195.194h-1.952l1.937.038Zm-1.952,0,1.937.038h-1.967Z" fill="#f8991e" stroke="#f8991e" stroke-linecap="round" stroke-miterlimit="10" stroke-width="0.109"/><path d="M138.748-195.156h-1.967l1.908.119Zm-1.967,0,1.908.119h-2Z" fill="#f8991e" stroke="#f8991e" stroke-linecap="round" stroke-miterlimit="10" stroke-width="0.109"/><path d="M138.689-195.036h-2l1.958.1Zm-2,0,1.958.1H136.6Z" fill="#f8991e" stroke="#f8991e" stroke-linecap="round" stroke-miterlimit="10" stroke-width="0.109"/><path d="M138.643-194.937H136.6l2.02.05Zm-2.046,0,2.02.05h-2.063Z" fill="#f8991e" stroke="#f8991e" stroke-linecap="round" stroke-miterlimit="10" stroke-width="0.109"/><path d="M138.615-194.886h-2.063l1.987.143Zm-2.063,0,1.987.143h-2.131Z" fill="#f8991e" stroke="#f8991e" stroke-linecap="round" stroke-miterlimit="10" stroke-width="0.109"/><path d="M138.54-194.743h-2.131l2.119.023Zm-2.131,0,2.119.023h-2.145Z" fill="#f8991e" stroke="#f8991e" stroke-linecap="round" stroke-miterlimit="10" stroke-width="0.109"/><path d="M138.528-194.72h-2.145l2.078.111Zm-2.145,0,2.078.111h-2.2Z" fill="#f8991e" stroke="#f8991e" stroke-linecap="round" stroke-miterlimit="10" stroke-width="0.109"/><path d="M138.461-194.609h-2.2l2.142.1Zm-2.2,0,2.142.1h-2.268Z" fill="#f8991e" stroke="#f8991e" stroke-linecap="round" stroke-miterlimit="10" stroke-width="0.109"/><path d="M138.4-194.509h-2.269l2.251.023Zm-2.268,0,2.251.023H136.1Z" fill="#f8991e" stroke="#f8991e" stroke-linecap="round" stroke-miterlimit="10" stroke-width="0.109"/><path d="M138.385-194.486H136.1l2.207.117Zm-2.283,0,2.207.117h-2.373Z" fill="#f8991e" stroke="#f8991e" stroke-linecap="round" stroke-miterlimit="10" stroke-width="0.109"/><path d="M138.308-194.369h-2.373l2.332.061Zm-2.373,0,2.332.061h-2.435Z" fill="#f8991e" stroke="#f8991e" stroke-linecap="round" stroke-miterlimit="10" stroke-width="0.109"/><path d="M138.268-194.307h-2.435l2.4.043Zm-2.435,0,2.4.043h-2.47Z" fill="#f8991e" stroke="#f8991e" stroke-linecap="round" stroke-miterlimit="10" stroke-width="0.109"/><path d="M138.236-194.263h-2.47l2.4.094Zm-2.47,0,2.4.094h-2.578Z" fill="#f8991e" stroke="#f8991e" stroke-linecap="round" stroke-miterlimit="10" stroke-width="0.109"/><path d="M138.165-194.17h-2.578l2.534.061Zm-2.578,0,2.534.061h-2.66Z" fill="#f8991e" stroke="#f8991e" stroke-linecap="round" stroke-miterlimit="10" stroke-width="0.109"/><path d="M138.122-194.108h-2.66l2.64.026Zm-2.66,0,2.64.026h-2.7Z" fill="#f8991e" stroke="#f8991e" stroke-linecap="round" stroke-miterlimit="10" stroke-width="0.109"/><path d="M138.1-194.082h-2.7l2.637.073Zm-2.7,0,2.637.073h-2.824Z" fill="#f8991e" stroke="#f8991e" stroke-linecap="round" stroke-miterlimit="10" stroke-width="0.109"/><path d="M138.043-194.009h-2.824l2.771.064Zm-2.824,0,2.771.064h-2.962Z" fill="#f8991e" stroke="#f8991e" stroke-linecap="round" stroke-miterlimit="10" stroke-width="0.109"/><path d="M137.99-193.945h-2.962l2.941.026Zm-2.962,0,2.941.026h-3.04Z" fill="#f8991e" stroke="#f8991e" stroke-linecap="round" stroke-miterlimit="10" stroke-width="0.109"/><path d="M137.969-193.918h-3.04l3.017.023Zm-3.04,0,3.017.023h-3.114Z" fill="#f8991e" stroke="#f8991e" stroke-linecap="round" stroke-miterlimit="10" stroke-width="0.109"/><path d="M137.946-193.894h-3.114l3.079.041Zm-3.114,0,3.079.041h-3.275Z" fill="#f8991e" stroke="#f8991e" stroke-linecap="round" stroke-miterlimit="10" stroke-width="0.109"/><path d="M137.911-193.853h-3.275l3.248.029Zm-3.275,0,3.248.029h-3.447Z" fill="#f8991e" stroke="#f8991e" stroke-linecap="round" stroke-miterlimit="10" stroke-width="0.109"/><path d="M137.885-193.825h-3.447l3.43.018Zm-3.447,0,3.43.018h-3.629Z" fill="#f8991e" stroke="#f8991e" stroke-linecap="round" stroke-miterlimit="10" stroke-width="0.109"/><path d="M137.867-193.806h-3.628l3.626.006Zm-3.629,0,3.626.006h-3.828Z" fill="#f8991e" stroke="#f8991e" stroke-linecap="round" stroke-miterlimit="10" stroke-width="0.109"/><path d="M132.336-200.716h-1.794l1.794,6.915Zm-1.794,0,1.794,6.915h-1.794Z" fill="#f8991e" stroke="#f8991e" stroke-linecap="round" stroke-miterlimit="10" stroke-width="0.109"/><path d="M137.865-193.8h-7.322l7.264.064Zm-7.322,0,7.264.064h-7.264Z" fill="#f8991e" stroke="#f8991e" stroke-linecap="round" stroke-miterlimit="10" stroke-width="0.109"/><path d="M137.806-193.737h-7.264l7.093.176Zm-7.264,0,7.093.176h-7.093Z" fill="#f8991e" stroke="#f8991e" stroke-linecap="round" stroke-miterlimit="10" stroke-width="0.109"/><path d="M137.635-193.561h-7.093l6.912.167Zm-7.093,0,6.912.167h-6.912Z" fill="#f8991e" stroke="#f8991e" stroke-linecap="round" stroke-miterlimit="10" stroke-width="0.109"/><path d="M137.454-193.393h-6.912l6.728.155Zm-6.912,0,6.728.155h-6.728Z" fill="#f8991e" stroke="#f8991e" stroke-linecap="round" stroke-miterlimit="10" stroke-width="0.109"/><path d="M137.27-193.239h-6.728l6.532.149Zm-6.728,0,6.532.149h-6.532Z" fill="#f8991e" stroke="#f8991e" stroke-linecap="round" stroke-miterlimit="10" stroke-width="0.109"/><path d="M137.074-193.089h-6.532l6.333.14Zm-6.532,0,6.333.14h-6.333Z" fill="#f8991e" stroke="#f8991e" stroke-linecap="round" stroke-miterlimit="10" stroke-width="0.109"/><path d="M136.875-192.949h-6.333l6.532.138Zm-6.333,0,6.532.138h-6.532Z" fill="#f8991e" stroke="#f8991e" stroke-linecap="round" stroke-miterlimit="10" stroke-width="0.109"/><path d="M137.074-192.812h-6.532l6.728.149Zm-6.532,0,6.728.149h-6.728Z" fill="#f8991e" stroke="#f8991e" stroke-linecap="round" stroke-miterlimit="10" stroke-width="0.109"/><path d="M137.27-192.662h-6.728l6.912.158Zm-6.728,0,6.912.158h-6.912Z" fill="#f8991e" stroke="#f8991e" stroke-linecap="round" stroke-miterlimit="10" stroke-width="0.109"/><path d="M137.454-192.5h-6.912l7.093.167Zm-6.912,0,7.093.167h-7.093Z" fill="#f8991e" stroke="#f8991e" stroke-linecap="round" stroke-miterlimit="10" stroke-width="0.109"/><path d="M137.635-192.337h-7.093l7.264.176Zm-7.093,0,7.264.176h-7.264Z" fill="#f8991e" stroke="#f8991e" stroke-linecap="round" stroke-miterlimit="10" stroke-width="0.109"/><path d="M137.806-192.162h-7.264l7.322.061Zm-7.264,0,7.322.061h-7.322Z" fill="#f8991e" stroke="#f8991e" stroke-linecap="round" stroke-miterlimit="10" stroke-width="0.109"/><path d="M137.865-192.1h-3.828l3.831.006Zm-3.828,0,3.831.006h-3.629Z" fill="#f8991e" stroke="#f8991e" stroke-linecap="round" stroke-miterlimit="10" stroke-width="0.109"/><path d="M137.867-192.095h-3.628l3.646.018Zm-3.629,0,3.646.018h-3.447Z" fill="#f8991e" stroke="#f8991e" stroke-linecap="round" stroke-miterlimit="10" stroke-width="0.109"/><path d="M137.885-192.078h-3.447l3.474.029Zm-3.447,0,3.474.029h-3.275Z" fill="#f8991e" stroke="#f8991e" stroke-linecap="round" stroke-miterlimit="10" stroke-width="0.109"/><path d="M137.911-192.048h-3.275l3.31.041Zm-3.275,0,3.31.041h-3.114Z" fill="#f8991e" stroke="#f8991e" stroke-linecap="round" stroke-miterlimit="10" stroke-width="0.109"/><path d="M137.946-192.006h-3.114l3.137.026Zm-3.114,0,3.137.026h-3.04Z" fill="#f8991e" stroke="#f8991e" stroke-linecap="round" stroke-miterlimit="10" stroke-width="0.109"/><path d="M137.969-191.981h-3.04l3.061.026Zm-3.04,0,3.061.026h-2.962Z" fill="#f8991e" stroke="#f8991e" stroke-linecap="round" stroke-miterlimit="10" stroke-width="0.109"/><path d="M137.99-191.954h-2.962l3.014.064Zm-2.962,0,3.014.064h-2.824Z" fill="#f8991e" stroke="#f8991e" stroke-linecap="round" stroke-miterlimit="10" stroke-width="0.109"/><path d="M138.043-191.89h-2.824l2.883.073Zm-2.824,0,2.883.073h-2.7Z" fill="#f8991e" stroke="#f8991e" stroke-linecap="round" stroke-miterlimit="10" stroke-width="0.109"/><path d="M138.1-191.817h-2.7l2.716.026Zm-2.7,0,2.716.026h-2.66Z" fill="#f8991e" stroke="#f8991e" stroke-linecap="round" stroke-miterlimit="10" stroke-width="0.109"/><path d="M138.122-191.791h-2.66l2.7.059Zm-2.66,0,2.7.059h-2.578Z" fill="#f8991e" stroke="#f8991e" stroke-linecap="round" stroke-miterlimit="10" stroke-width="0.109"/><path d="M138.165-191.732h-2.578l2.649.1Zm-2.578,0,2.649.1h-2.47Z" fill="#f8991e" stroke="#f8991e" stroke-linecap="round" stroke-miterlimit="10" stroke-width="0.109"/><path d="M138.236-191.635h-2.47l2.5.041Zm-2.47,0,2.5.041h-2.435Z" fill="#f8991e" stroke="#f8991e" stroke-linecap="round" stroke-miterlimit="10" stroke-width="0.109"/><path d="M138.268-191.595h-2.435l2.476.064Zm-2.435,0,2.476.064h-2.373Z" fill="#f8991e" stroke="#f8991e" stroke-linecap="round" stroke-miterlimit="10" stroke-width="0.109"/><path d="M138.308-191.531h-2.373l2.449.114Zm-2.373,0,2.449.114H136.1Z" fill="#f8991e" stroke="#f8991e" stroke-linecap="round" stroke-miterlimit="10" stroke-width="0.109"/><path d="M138.385-191.417H136.1l2.3.026Zm-2.283,0,2.3.026h-2.268Z" fill="#f8991e" stroke="#f8991e" stroke-linecap="round" stroke-miterlimit="10" stroke-width="0.109"/><path d="M138.4-191.389h-2.269l2.327.1Zm-2.268,0,2.327.1h-2.2Z" fill="#f8991e" stroke="#f8991e" stroke-linecap="round" stroke-miterlimit="10" stroke-width="0.109"/><path d="M138.461-191.291h-2.2l2.268.111Zm-2.2,0,2.268.111h-2.145Z" fill="#f8991e" stroke="#f8991e" stroke-linecap="round" stroke-miterlimit="10" stroke-width="0.109"/><path d="M138.528-191.179h-2.145l2.157.023Zm-2.145,0,2.157.023h-2.131Z" fill="#f8991e" stroke="#f8991e" stroke-linecap="round" stroke-miterlimit="10" stroke-width="0.109"/><path d="M138.54-191.155h-2.131l2.207.14Zm-2.131,0,2.207.14h-2.063Z" fill="#f8991e" stroke="#f8991e" stroke-linecap="round" stroke-miterlimit="10" stroke-width="0.109"/><path d="M138.615-191.014h-2.063l2.089.05Zm-2.063,0,2.089.05H136.6Z" fill="#f8991e" stroke="#f8991e" stroke-linecap="round" stroke-miterlimit="10" stroke-width="0.109"/><path d="M138.643-190.965H136.6l2.092.1Zm-2.046,0,2.092.1h-2Z" fill="#f8991e" stroke="#f8991e" stroke-linecap="round" stroke-miterlimit="10" stroke-width="0.109"/><path d="M138.689-190.862h-2l2.063.119Zm-2,0,2.063.119h-1.967Z" fill="#f8991e" stroke="#f8991e" stroke-linecap="round" stroke-miterlimit="10" stroke-width="0.109"/><path d="M138.748-190.742h-1.967l1.981.035Zm-1.967,0,1.981.035H136.81Z" fill="#f8991e" stroke="#f8991e" stroke-linecap="round" stroke-miterlimit="10" stroke-width="0.109"/><path d="M138.763-190.707h-1.952l2.022.167Zm-1.952,0,2.022.167h-1.908Z" fill="#f8991e" stroke="#f8991e" stroke-linecap="round" stroke-miterlimit="10" stroke-width="0.109"/><path d="M138.833-190.541h-1.908l1.917.023Zm-1.908,0,1.917.023h-1.9Z" fill="#f8991e" stroke="#f8991e" stroke-linecap="round" stroke-miterlimit="10" stroke-width="0.109"/><path d="M138.842-190.517h-1.9l1.955.146Zm-1.9,0,1.955.146H137.03Z" fill="#f8991e" stroke="#f8991e" stroke-linecap="round" stroke-miterlimit="10" stroke-width="0.109"/><path d="M138.894-190.37H137.03l1.9.082Zm-1.864,0,1.9.082h-1.85Z" fill="#f8991e" stroke="#f8991e" stroke-linecap="round" stroke-miterlimit="10" stroke-width="0.109"/><path d="M138.926-190.289h-1.849l1.879.1Zm-1.849,0,1.879.1h-1.828Z" fill="#f8991e" stroke="#f8991e" stroke-linecap="round" stroke-miterlimit="10" stroke-width="0.109"/><path d="M138.956-190.192h-1.829l1.87.138Zm-1.829,0,1.87.138h-1.806Z" fill="#f8991e" stroke="#f8991e" stroke-linecap="round" stroke-miterlimit="10" stroke-width="0.109"/><path d="M139-190.054h-1.806l1.817.043Zm-1.806,0,1.817.043h-1.8Z" fill="#f8991e" stroke="#f8991e" stroke-linecap="round" stroke-miterlimit="10" stroke-width="0.109"/><path d="M139.009-190.011h-1.8l1.847.187Zm-1.8,0,1.847.187h-1.773Z" fill="#f8991e" stroke="#f8991e" stroke-linecap="round" stroke-miterlimit="10" stroke-width="0.109"/><path d="M139.058-189.823h-1.773l1.773.006Zm-1.773,0,1.773.006h-1.77Z" fill="#f8991e" stroke="#f8991e" stroke-linecap="round" stroke-miterlimit="10" stroke-width="0.109"/><path d="M139.058-189.818h-1.77l1.812.185Zm-1.77,0,1.812.185h-1.75Z" fill="#f8991e" stroke="#f8991e" stroke-linecap="round" stroke-miterlimit="10" stroke-width="0.109"/><path d="M139.1-189.633h-1.75l1.762.056Zm-1.75,0,1.762.056h-1.747Z" fill="#f8991e" stroke="#f8991e" stroke-linecap="round" stroke-miterlimit="10" stroke-width="0.109"/><path d="M139.11-189.578h-1.747l1.768.14Zm-1.747,0,1.768.14H137.4Z" fill="#f8991e" stroke="#f8991e" stroke-linecap="round" stroke-miterlimit="10" stroke-width="0.109"/><path d="M139.132-189.438H137.4l1.747.1Zm-1.729,0,1.747.1h-1.727Z" fill="#f8991e" stroke="#f8991e" stroke-linecap="round" stroke-miterlimit="10" stroke-width="0.109"/><path d="M139.149-189.338h-1.727l1.735.1Zm-1.727,0,1.735.1h-1.715Z" fill="#f8991e" stroke="#f8991e" stroke-linecap="round" stroke-miterlimit="10" stroke-width="0.109"/><path d="M139.157-189.242h-1.715l1.732.146Zm-1.715,0,1.732.146h-1.711Z" fill="#f8991e" stroke="#f8991e" stroke-linecap="round" stroke-miterlimit="10" stroke-width="0.109"/><path d="M139.174-189.094h-1.711l1.715.053Zm-1.712,0,1.715.053h-1.707Z" fill="#f8991e" stroke="#f8991e" stroke-linecap="round" stroke-miterlimit="10" stroke-width="0.109"/><path d="M139.179-189.042h-1.707l1.718.193Zm-1.707,0,1.718.193h-1.7Z" fill="#f8991e" stroke="#f8991e" stroke-linecap="round" stroke-miterlimit="10" stroke-width="0.109"/><path d="M139.19-188.849h-1.7l1.7.006Zm-1.7,0,1.7.006h-1.7Z" fill="#f8991e" stroke="#f8991e" stroke-linecap="round" stroke-miterlimit="10" stroke-width="0.109"/><path d="M139.19-188.844h-1.7l1.707.2Zm-1.7,0,1.707.2h-1.7Z" fill="#f8991e" stroke="#f8991e" stroke-linecap="round" stroke-miterlimit="10" stroke-width="0.109"/><path d="M139.2-188.642h-1.7l1.7.035Zm-1.7,0,1.7.035h-1.7Z" fill="#f8991e" stroke="#f8991e" stroke-linecap="round" stroke-miterlimit="10" stroke-width="0.109"/><path d="M139.2-188.606h-1.7l1.7.167Zm-1.7,0,1.7.167h-1.7Z" fill="#f8991e" stroke="#f8991e" stroke-linecap="round" stroke-miterlimit="10" stroke-width="0.109"/><path d="M139.19-188.439h-1.7l1.7.079Zm-1.7,0,1.7.079h-1.707Z" fill="#f8991e" stroke="#f8991e" stroke-linecap="round" stroke-miterlimit="10" stroke-width="0.109"/><path d="M139.187-188.361h-1.707l1.7.119Zm-1.707,0,1.7.119h-1.707Z" fill="#f8991e" stroke="#f8991e" stroke-linecap="round" stroke-miterlimit="10" stroke-width="0.109"/><path d="M139.179-188.24h-1.707l1.7.123Zm-1.707,0,1.7.123h-1.715Z" fill="#f8991e" stroke="#f8991e" stroke-linecap="round" stroke-miterlimit="10" stroke-width="0.109"/><path d="M139.169-188.117h-1.715l1.7.076Zm-1.715,0,1.7.076h-1.715Z" fill="#f8991e" stroke="#f8991e" stroke-linecap="round" stroke-miterlimit="10" stroke-width="0.109"/><path d="M139.157-188.042h-1.715l1.694.167Zm-1.715,0,1.694.167h-1.729Z" fill="#f8991e" stroke="#f8991e" stroke-linecap="round" stroke-miterlimit="10" stroke-width="0.109"/><path d="M139.137-187.875h-1.729l1.724.033Zm-1.729,0,1.724.033H137.4Z" fill="#f8991e" stroke="#f8991e" stroke-linecap="round" stroke-miterlimit="10" stroke-width="0.109"/><path d="M139.132-187.842H137.4l1.7.193Zm-1.729,0,1.7.193h-1.75Z" fill="#f8991e" stroke="#f8991e" stroke-linecap="round" stroke-miterlimit="10" stroke-width="0.109"/><path d="M139.1-187.649h-1.75l1.747.015Zm-1.75,0,1.747.015h-1.753Z" fill="#f8991e" stroke="#f8991e" stroke-linecap="round" stroke-miterlimit="10" stroke-width="0.109"/><path d="M139.1-187.635h-1.753l1.715.176Zm-1.753,0,1.715.176h-1.773Z" fill="#f8991e" stroke="#f8991e" stroke-linecap="round" stroke-miterlimit="10" stroke-width="0.109"/><path d="M139.058-187.459h-1.773l1.759.064Zm-1.773,0,1.759.064h-1.782Z" fill="#f8991e" stroke="#f8991e" stroke-linecap="round" stroke-miterlimit="10" stroke-width="0.109"/><path d="M139.043-187.4h-1.782l1.747.123Zm-1.782,0,1.747.123h-1.8Z" fill="#f8991e" stroke="#f8991e" stroke-linecap="round" stroke-miterlimit="10" stroke-width="0.109"/><path d="M139.009-187.271h-1.8l1.768.111Zm-1.8,0,1.768.111h-1.82Z" fill="#f8991e" stroke="#f8991e" stroke-linecap="round" stroke-miterlimit="10" stroke-width="0.109"/><path d="M138.978-187.161h-1.82l1.8.07Zm-1.82,0,1.8.07h-1.828Z" fill="#f8991e" stroke="#f8991e" stroke-linecap="round" stroke-miterlimit="10" stroke-width="0.109"/><path d="M138.956-187.09h-1.829l1.776.164Zm-1.829,0,1.776.164h-1.864Z" fill="#f8991e" stroke="#f8991e" stroke-linecap="round" stroke-miterlimit="10" stroke-width="0.109"/><path d="M138.9-186.926h-1.864l1.858.015Zm-1.864,0,1.858.015h-1.867Z" fill="#f8991e" stroke="#f8991e" stroke-linecap="round" stroke-miterlimit="10" stroke-width="0.109"/><path d="M138.9-186.912H137.03l1.8.17Zm-1.867,0,1.8.17h-1.908Z" fill="#f8991e" stroke="#f8991e" stroke-linecap="round" stroke-miterlimit="10" stroke-width="0.109"/><path d="M138.833-186.742h-1.908l1.891.043Zm-1.908,0,1.891.043H136.9Z" fill="#f8991e" stroke="#f8991e" stroke-linecap="round" stroke-miterlimit="10" stroke-width="0.109"/><path d="M138.816-186.7H136.9l1.867.123Zm-1.92,0,1.867.123h-1.952Z" fill="#f8991e" stroke="#f8991e" stroke-linecap="round" stroke-miterlimit="10" stroke-width="0.109"/><path d="M138.763-186.575h-1.952l1.908.1Zm-1.952,0,1.908.1h-1.99Z" fill="#f8991e" stroke="#f8991e" stroke-linecap="round" stroke-miterlimit="10" stroke-width="0.109"/><path d="M138.719-186.476h-1.99l1.961.059Zm-1.99,0,1.961.059h-2Z" fill="#f8991e" stroke="#f8991e" stroke-linecap="round" stroke-miterlimit="10" stroke-width="0.109"/><path d="M138.689-186.417h-2l1.932.149Zm-2,0,1.932.149h-2.063Z" fill="#f8991e" stroke="#f8991e" stroke-linecap="round" stroke-miterlimit="10" stroke-width="0.109"/><path d="M138.615-186.268h-2.063l2.057.012Zm-2.063,0,2.057.012h-2.072Z" fill="#f8991e" stroke="#f8991e" stroke-linecap="round" stroke-miterlimit="10" stroke-width="0.109"/><path d="M138.61-186.256h-2.072l2,.132Zm-2.072,0,2,.132h-2.131Z" fill="#f8991e" stroke="#f8991e" stroke-linecap="round" stroke-miterlimit="10" stroke-width="0.109"/><path d="M138.54-186.125h-2.131l2.084.085Zm-2.131,0,2.084.085h-2.18Z" fill="#f8991e" stroke="#f8991e" stroke-linecap="round" stroke-miterlimit="10" stroke-width="0.109"/><path d="M138.493-186.041h-2.18l2.148.047Zm-2.18,0,2.148.047h-2.2Z" fill="#f8991e" stroke="#f8991e" stroke-linecap="round" stroke-miterlimit="10" stroke-width="0.109"/><path d="M138.461-185.994h-2.2l2.125.126Zm-2.2,0,2.125.126H136.1Z" fill="#f8991e" stroke="#f8991e" stroke-linecap="round" stroke-miterlimit="10" stroke-width="0.109"/><path d="M138.385-185.868H136.1l2.262.035Zm-2.283,0,2.262.035h-2.311Z" fill="#f8991e" stroke="#f8991e" stroke-linecap="round" stroke-miterlimit="10" stroke-width="0.109"/><path d="M138.365-185.831h-2.311l2.256.079Zm-2.312,0,2.256.079h-2.373Z" fill="#f8991e" stroke="#f8991e" stroke-linecap="round" stroke-miterlimit="10" stroke-width="0.109"/><path d="M138.308-185.754h-2.373l2.3.109Zm-2.373,0,2.3.109h-2.47Z" fill="#f8991e" stroke="#f8991e" stroke-linecap="round" stroke-miterlimit="10" stroke-width="0.109"/><path d="M138.236-185.645h-2.47l2.461.015Zm-2.47,0,2.461.015h-2.49Z" fill="#f8991e" stroke="#f8991e" stroke-linecap="round" stroke-miterlimit="10" stroke-width="0.109"/><path d="M138.227-185.63h-2.491l2.429.079Zm-2.49,0,2.429.079h-2.578Z" fill="#f8991e" stroke="#f8991e" stroke-linecap="round" stroke-miterlimit="10" stroke-width="0.109"/><path d="M138.165-185.551h-2.578l2.514.085Zm-2.578,0,2.514.085h-2.695Z" fill="#f8991e" stroke="#f8991e" stroke-linecap="round" stroke-miterlimit="10" stroke-width="0.109"/><path d="M138.1-185.467h-2.7l2.672.029Zm-2.7,0,2.672.029h-2.745Z" fill="#f8991e" stroke="#f8991e" stroke-linecap="round" stroke-miterlimit="10" stroke-width="0.109"/><path d="M138.078-185.437h-2.745l2.71.047Zm-2.745,0,2.71.047h-2.824Z" fill="#f8991e" stroke="#f8991e" stroke-linecap="round" stroke-miterlimit="10" stroke-width="0.109"/><path d="M138.043-185.391h-2.824l2.771.061Zm-2.824,0,2.771.061h-2.962Z" fill="#f8991e" stroke="#f8991e" stroke-linecap="round" stroke-miterlimit="10" stroke-width="0.109"/><path d="M137.99-185.329h-2.962l2.918.053Zm-2.962,0,2.918.053h-3.114Z" fill="#f8991e" stroke="#f8991e" stroke-linecap="round" stroke-miterlimit="10" stroke-width="0.109"/><path d="M137.946-185.276h-3.114l3.09.029Zm-3.114,0,3.09.029H134.7Z" fill="#f8991e" stroke="#f8991e" stroke-linecap="round" stroke-miterlimit="10" stroke-width="0.109"/><path d="M137.923-185.247H134.7l3.213.012Zm-3.225,0,3.213.012h-3.275Z" fill="#f8991e" stroke="#f8991e" stroke-linecap="round" stroke-miterlimit="10" stroke-width="0.109"/><path d="M137.911-185.235h-3.275l3.248.029Zm-3.275,0,3.248.029h-3.447Z" fill="#f8991e" stroke="#f8991e" stroke-linecap="round" stroke-miterlimit="10" stroke-width="0.109"/><path d="M137.885-185.206h-3.447l3.43.018Zm-3.447,0,3.43.018h-3.629Z" fill="#f8991e" stroke="#f8991e" stroke-linecap="round" stroke-miterlimit="10" stroke-width="0.109"/><path d="M137.867-185.188h-3.628l3.626.006Zm-3.629,0,3.626.006h-3.828Z" fill="#f8991e" stroke="#f8991e" stroke-linecap="round" stroke-miterlimit="10" stroke-width="0.109"/><path d="M132.336-192.1h-1.794l1.794,6.918Zm-1.794,0,1.794,6.918h-1.794Z" fill="#f8991e" stroke="#f8991e" stroke-linecap="round" stroke-miterlimit="10" stroke-width="0.109"/><path d="M137.865-185.182h-7.322l7.217.114Zm-7.322,0,7.217.114h-7.217Z" fill="#f8991e" stroke="#f8991e" stroke-linecap="round" stroke-miterlimit="10" stroke-width="0.109"/><path d="M137.759-185.068h-7.217l7.041.173Zm-7.217,0,7.041.173h-7.041Z" fill="#f8991e" stroke="#f8991e" stroke-linecap="round" stroke-miterlimit="10" stroke-width="0.109"/><path d="M137.583-184.895h-7.041l6.86.164Zm-7.041,0,6.86.164h-6.86Z" fill="#f8991e" stroke="#f8991e" stroke-linecap="round" stroke-miterlimit="10" stroke-width="0.109"/><path d="M137.4-184.732h-6.86l6.672.155Zm-6.86,0,6.672.155h-6.672Z" fill="#f8991e" stroke="#f8991e" stroke-linecap="round" stroke-miterlimit="10" stroke-width="0.109"/><path d="M137.214-184.576h-6.672l6.476.146Zm-6.672,0,6.476.146h-6.476Z" fill="#f8991e" stroke="#f8991e" stroke-linecap="round" stroke-miterlimit="10" stroke-width="0.109"/><path d="M137.019-184.431h-6.476l6.272.138Zm-6.476,0,6.272.138h-6.272Z" fill="#f8991e" stroke="#f8991e" stroke-linecap="round" stroke-miterlimit="10" stroke-width="0.109"/><path d="M136.813-184.292h-6.272l6.064.126Zm-6.272,0,6.064.126h-6.064Z" fill="#f8991e" stroke="#f8991e" stroke-linecap="round" stroke-miterlimit="10" stroke-width="0.109"/><path d="M136.606-184.166h-6.064l5.85.117Zm-6.064,0,5.85.117h-5.85Z" fill="#f8991e" stroke="#f8991e" stroke-linecap="round" stroke-miterlimit="10" stroke-width="0.109"/><path d="M136.391-184.049h-5.85l5.628.105Zm-5.85,0,5.628.105h-5.628Z" fill="#f8991e" stroke="#f8991e" stroke-linecap="round" stroke-miterlimit="10" stroke-width="0.109"/><path d="M136.169-183.945h-5.628l5.4.1Zm-5.628,0,5.4.1h-5.4Z" fill="#f8991e" stroke="#f8991e" stroke-linecap="round" stroke-miterlimit="10" stroke-width="0.109"/><path d="M135.945-183.847h-5.4l5.174.085Zm-5.4,0,5.174.085h-5.174Z" fill="#f8991e" stroke="#f8991e" stroke-linecap="round" stroke-miterlimit="10" stroke-width="0.109"/><path d="M135.716-183.763h-5.174l4.943.073Zm-5.174,0,4.943.073h-4.943Z" fill="#f8991e" stroke="#f8991e" stroke-linecap="round" stroke-miterlimit="10" stroke-width="0.109"/><path d="M135.485-183.69h-4.943l4.706.064Zm-4.943,0,4.706.064h-4.706Z" fill="#f8991e" stroke="#f8991e" stroke-linecap="round" stroke-miterlimit="10" stroke-width="0.109"/><path d="M135.247-183.625h-4.706l4.466.05Zm-4.706,0,4.466.05h-4.466Z" fill="#f8991e" stroke="#f8991e" stroke-linecap="round" stroke-miterlimit="10" stroke-width="0.109"/><path d="M135.007-183.577h-4.466l4.226.041Zm-4.466,0,4.226.041h-4.226Z" fill="#f8991e" stroke="#f8991e" stroke-linecap="round" stroke-miterlimit="10" stroke-width="0.109"/><path d="M134.767-183.535h-4.226l3.983.029Zm-4.226,0,3.983.029h-3.983Z" fill="#f8991e" stroke="#f8991e" stroke-linecap="round" stroke-miterlimit="10" stroke-width="0.109"/><path d="M134.525-183.505h-3.983l3.737.018Zm-3.983,0,3.737.018h-3.737Z" fill="#f8991e" stroke="#f8991e" stroke-linecap="round" stroke-miterlimit="10" stroke-width="0.109"/><path d="M134.278-183.488h-3.737l3.494.006Zm-3.737,0,3.494.006h-3.494Z" fill="#f8991e" stroke="#f8991e" stroke-linecap="round" stroke-miterlimit="10" stroke-width="0.109"/><path d="M130.542-200.716v15.534" fill="none" stroke="#f8991e" stroke-linecap="round" stroke-linejoin="round" stroke-miterlimit="10" stroke-width="0.102"/><path d="M134.036-200.716h-1.7" fill="none" stroke="#f8991e" stroke-linecap="round" stroke-linejoin="round" stroke-miterlimit="10" stroke-width="0.102"/><path d="M134.036-185.182h-1.7" fill="none" stroke="#f8991e" stroke-linecap="round" stroke-linejoin="round" stroke-miterlimit="10" stroke-width="0.102"/><path d="M130.542-200.716v-1.7" fill="none" stroke="#f8991e" stroke-linecap="round" stroke-linejoin="round" stroke-miterlimit="10" stroke-width="0.102"/><path d="M130.542-185.182v1.7" fill="none" stroke="#f8991e" stroke-linecap="round" stroke-linejoin="round" stroke-miterlimit="10" stroke-width="0.102"/><path d="M130.542-192.1v-1.7" fill="none" stroke="#f8991e" stroke-linecap="round" stroke-linejoin="round" stroke-miterlimit="10" stroke-width="0.102"/><path d="M134.037-183.485a5.158,5.158,0,0,0,4.941-3.677,5.158,5.158,0,0,0-2.1-5.789" fill="none" stroke="#f8991e" stroke-linecap="round" stroke-linejoin="round" stroke-miterlimit="10" stroke-width="0.102"/><path d="M132.336-193.8h1.7" fill="none" stroke="#f8991e" stroke-linecap="round" stroke-linejoin="round" stroke-miterlimit="10" stroke-width="0.102"/><path d="M132.336-192.1h1.7" fill="none" stroke="#f8991e" stroke-linecap="round" stroke-linejoin="round" stroke-miterlimit="10" stroke-width="0.102"/><path d="M130.542-193.8v10.319" fill="none" stroke="#f8991e" stroke-linecap="round" stroke-linejoin="round" stroke-miterlimit="10" stroke-width="0.102"/><path d="M136.874-192.954a5.158,5.158,0,0,0,2.1-5.788,5.158,5.158,0,0,0-4.941-3.677" fill="none" stroke="#f8991e" stroke-linecap="round" stroke-linejoin="round" stroke-miterlimit="10" stroke-width="0.102"/><path d="M134.037-193.8a3.458,3.458,0,0,0,3.458-3.458,3.458,3.458,0,0,0-3.457-3.458" fill="none" stroke="#f8991e" stroke-linecap="round" stroke-linejoin="round" stroke-miterlimit="10" stroke-width="0.102"/><path d="M132.336-193.8v-6.915" fill="none" stroke="#f8991e" stroke-linecap="round" stroke-linejoin="round" stroke-miterlimit="10" stroke-width="0.102"/><path d="M132.336-185.182V-192.1" fill="none" stroke="#f8991e" stroke-linecap="round" stroke-linejoin="round" stroke-miterlimit="10" stroke-width="0.102"/><path d="M130.542-183.482h3.494" fill="none" stroke="#f8991e" stroke-linecap="round" stroke-linejoin="round" stroke-miterlimit="10" stroke-width="0.102"/><path d="M130.542-202.419h3.494" fill="none" stroke="#f8991e" stroke-linecap="round" stroke-linejoin="round" stroke-miterlimit="10" stroke-width="0.102"/><path d="M134.037-185.185a3.458,3.458,0,0,0,3.458-3.457,3.458,3.458,0,0,0-3.458-3.458" fill="none" stroke="#f8991e" stroke-linecap="round" stroke-linejoin="round" stroke-miterlimit="10" stroke-width="0.102"/><path d="M107.695-180.2h20.661" fill="none" stroke="#f8991e" stroke-linecap="round" stroke-linejoin="round" stroke-miterlimit="10" stroke-width="0.102"/></g></g></g></svg>